<svg width="1480" height="967" viewBox="0 0 1480 967" fill="none" xmlns="http://www.w3.org/2000/svg">
<rect x="1024" width="456" height="233" rx="30" fill="#11284A"/>
<rect x="3" y="691" width="965" height="276" rx="30" fill="#11284A"/>
<rect x="1024" y="291" width="456" height="676" rx="30" fill="#11284A"/>
<path d="M1166.35 88.072V118.664C1166.35 123.4 1165 127.048 1162.31 129.608C1159.67 132.168 1156.09 133.448 1151.56 133.448C1146.83 133.448 1143.03 132.104 1140.17 129.416C1137.31 126.728 1135.88 122.909 1135.88 117.96H1146.76C1146.76 119.837 1147.15 121.267 1147.91 122.248C1148.68 123.187 1149.79 123.656 1151.24 123.656C1152.57 123.656 1153.59 123.229 1154.31 122.376C1155.04 121.523 1155.4 120.285 1155.4 118.664V88.072H1166.35ZM1210.45 97.288V133H1199.51V128.136C1198.4 129.715 1196.88 130.995 1194.96 131.976C1193.09 132.915 1190.99 133.384 1188.69 133.384C1185.96 133.384 1183.55 132.787 1181.46 131.592C1179.37 130.355 1177.75 128.584 1176.59 126.28C1175.44 123.976 1174.87 121.267 1174.87 118.152V97.288H1185.75V116.68C1185.75 119.069 1186.37 120.925 1187.6 122.248C1188.84 123.571 1190.5 124.232 1192.59 124.232C1194.73 124.232 1196.41 123.571 1197.65 122.248C1198.89 120.925 1199.51 119.069 1199.51 116.68V97.288H1210.45ZM1240.07 96.904C1244.25 96.904 1247.58 98.2693 1250.06 101C1252.57 103.688 1253.83 107.4 1253.83 112.136V133H1242.95V113.608C1242.95 111.219 1242.33 109.363 1241.1 108.04C1239.86 106.717 1238.19 106.056 1236.1 106.056C1234.01 106.056 1232.35 106.717 1231.11 108.04C1229.87 109.363 1229.26 111.219 1229.26 113.608V133H1218.31V97.288H1229.26V102.024C1230.37 100.445 1231.86 99.208 1233.74 98.312C1235.61 97.3733 1237.73 96.904 1240.07 96.904ZM1295.1 114.568C1295.1 115.592 1295.04 116.659 1294.91 117.768H1270.14C1270.31 119.987 1271.02 121.693 1272.25 122.888C1273.53 124.04 1275.09 124.616 1276.92 124.616C1279.66 124.616 1281.55 123.464 1282.62 121.16H1294.27C1293.67 123.507 1292.58 125.619 1291 127.496C1289.47 129.373 1287.53 130.845 1285.18 131.912C1282.83 132.979 1280.21 133.512 1277.31 133.512C1273.81 133.512 1270.7 132.765 1267.96 131.272C1265.23 129.779 1263.1 127.645 1261.56 124.872C1260.03 122.099 1259.26 118.856 1259.26 115.144C1259.26 111.432 1260.01 108.189 1261.5 105.416C1263.04 102.643 1265.17 100.509 1267.9 99.016C1270.63 97.5227 1273.77 96.776 1277.31 96.776C1280.76 96.776 1283.84 97.5013 1286.52 98.952C1289.21 100.403 1291.3 102.472 1292.8 105.16C1294.33 107.848 1295.1 110.984 1295.1 114.568ZM1283.9 111.688C1283.9 109.811 1283.26 108.317 1281.98 107.208C1280.7 106.099 1279.1 105.544 1277.18 105.544C1275.35 105.544 1273.79 106.077 1272.51 107.144C1271.27 108.211 1270.5 109.725 1270.2 111.688H1283.9ZM1312.2 96.456V86.28H1329.92V133H1318.53V96.456H1312.2ZM1367.24 94.472L1351.17 133H1339.97L1356.23 95.688H1336.32V86.344H1367.24V94.472Z" fill="white"/>
<path d="M1141.5 343.072V351.84H1123.19V361.312H1136.89V369.824H1123.19V388H1112.25V343.072H1141.5ZM1163.51 388.512C1160.01 388.512 1156.85 387.765 1154.03 386.272C1151.26 384.779 1149.06 382.645 1147.44 379.872C1145.86 377.099 1145.07 373.856 1145.07 370.144C1145.07 366.475 1145.88 363.253 1147.51 360.48C1149.13 357.664 1151.35 355.509 1154.16 354.016C1156.98 352.523 1160.13 351.776 1163.63 351.776C1167.13 351.776 1170.29 352.523 1173.11 354.016C1175.92 355.509 1178.14 357.664 1179.76 360.48C1181.38 363.253 1182.19 366.475 1182.19 370.144C1182.19 373.813 1181.36 377.056 1179.7 379.872C1178.08 382.645 1175.84 384.779 1172.98 386.272C1170.16 387.765 1167 388.512 1163.51 388.512ZM1163.51 379.04C1165.6 379.04 1167.37 378.272 1168.82 376.736C1170.31 375.2 1171.06 373.003 1171.06 370.144C1171.06 367.285 1170.33 365.088 1168.88 363.552C1167.47 362.016 1165.72 361.248 1163.63 361.248C1161.5 361.248 1159.73 362.016 1158.32 363.552C1156.91 365.045 1156.21 367.243 1156.21 370.144C1156.21 373.003 1156.89 375.2 1158.26 376.736C1159.67 378.272 1161.41 379.04 1163.51 379.04ZM1198.94 358.24C1200.22 356.277 1201.82 354.741 1203.74 353.632C1205.66 352.48 1207.8 351.904 1210.14 351.904V363.488H1207.14C1204.4 363.488 1202.36 364.085 1200.99 365.28C1199.63 366.432 1198.94 368.48 1198.94 371.424V388H1188V352.288H1198.94V358.24ZM1249.04 369.568C1249.04 370.592 1248.97 371.659 1248.85 372.768H1224.08C1224.25 374.987 1224.95 376.693 1226.19 377.888C1227.47 379.04 1229.03 379.616 1230.86 379.616C1233.59 379.616 1235.49 378.464 1236.56 376.16H1248.21C1247.61 378.507 1246.52 380.619 1244.94 382.496C1243.41 384.373 1241.46 385.845 1239.12 386.912C1236.77 387.979 1234.15 388.512 1231.25 388.512C1227.75 388.512 1224.63 387.765 1221.9 386.272C1219.17 384.779 1217.04 382.645 1215.5 379.872C1213.97 377.099 1213.2 373.856 1213.2 370.144C1213.2 366.432 1213.94 363.189 1215.44 360.416C1216.97 357.643 1219.11 355.509 1221.84 354.016C1224.57 352.523 1227.7 351.776 1231.25 351.776C1234.7 351.776 1237.77 352.501 1240.46 353.952C1243.15 355.403 1245.24 357.472 1246.73 360.16C1248.27 362.848 1249.04 365.984 1249.04 369.568ZM1237.84 366.688C1237.84 364.811 1237.2 363.317 1235.92 362.208C1234.64 361.099 1233.04 360.544 1231.12 360.544C1229.28 360.544 1227.73 361.077 1226.45 362.144C1225.21 363.211 1224.44 364.725 1224.14 366.688H1237.84ZM1252.64 370.144C1252.64 366.432 1253.38 363.189 1254.88 360.416C1256.41 357.643 1258.52 355.509 1261.21 354.016C1263.94 352.523 1267.06 351.776 1270.56 351.776C1275.04 351.776 1278.77 352.949 1281.76 355.296C1284.79 357.643 1286.77 360.949 1287.71 365.216H1276.06C1275.08 362.485 1273.18 361.12 1270.36 361.12C1268.36 361.12 1266.76 361.909 1265.56 363.488C1264.37 365.024 1263.77 367.243 1263.77 370.144C1263.77 373.045 1264.37 375.285 1265.56 376.864C1266.76 378.4 1268.36 379.168 1270.36 379.168C1273.18 379.168 1275.08 377.803 1276.06 375.072H1287.71C1286.77 379.253 1284.79 382.539 1281.76 384.928C1278.73 387.317 1274.99 388.512 1270.56 388.512C1267.06 388.512 1263.94 387.765 1261.21 386.272C1258.52 384.779 1256.41 382.645 1254.88 379.872C1253.38 377.099 1252.64 373.856 1252.64 370.144ZM1291.39 370.08C1291.39 366.411 1292.07 363.189 1293.43 360.416C1294.84 357.643 1296.74 355.509 1299.13 354.016C1301.52 352.523 1304.19 351.776 1307.13 351.776C1309.65 351.776 1311.84 352.288 1313.72 353.312C1315.64 354.336 1317.11 355.68 1318.14 357.344V352.288H1329.08V388H1318.14V382.944C1317.07 384.608 1315.58 385.952 1313.66 386.976C1311.78 388 1309.58 388.512 1307.07 388.512C1304.16 388.512 1301.52 387.765 1299.13 386.272C1296.74 384.736 1294.84 382.581 1293.43 379.808C1292.07 376.992 1291.39 373.749 1291.39 370.08ZM1318.14 370.144C1318.14 367.413 1317.37 365.259 1315.83 363.68C1314.34 362.101 1312.51 361.312 1310.33 361.312C1308.15 361.312 1306.3 362.101 1304.76 363.68C1303.27 365.216 1302.52 367.349 1302.52 370.08C1302.52 372.811 1303.27 374.987 1304.76 376.608C1306.3 378.187 1308.15 378.976 1310.33 378.976C1312.51 378.976 1314.34 378.187 1315.83 376.608C1317.37 375.029 1318.14 372.875 1318.14 370.144ZM1351.53 388.512C1348.41 388.512 1345.64 387.979 1343.21 386.912C1340.78 385.845 1338.86 384.395 1337.45 382.56C1336.04 380.683 1335.25 378.592 1335.08 376.288H1345.9C1346.02 377.525 1346.6 378.528 1347.62 379.296C1348.65 380.064 1349.91 380.448 1351.4 380.448C1352.76 380.448 1353.81 380.192 1354.54 379.68C1355.3 379.125 1355.69 378.421 1355.69 377.568C1355.69 376.544 1355.15 375.797 1354.09 375.328C1353.02 374.816 1351.29 374.261 1348.9 373.664C1346.34 373.067 1344.21 372.448 1342.5 371.808C1340.8 371.125 1339.32 370.08 1338.09 368.672C1336.85 367.221 1336.23 365.28 1336.23 362.848C1336.23 360.8 1336.79 358.944 1337.9 357.28C1339.05 355.573 1340.71 354.229 1342.89 353.248C1345.11 352.267 1347.73 351.776 1350.76 351.776C1355.24 351.776 1358.76 352.885 1361.32 355.104C1363.92 357.323 1365.42 360.267 1365.8 363.936H1355.69C1355.52 362.699 1354.96 361.717 1354.02 360.992C1353.13 360.267 1351.93 359.904 1350.44 359.904C1349.16 359.904 1348.18 360.16 1347.5 360.672C1346.81 361.141 1346.47 361.803 1346.47 362.656C1346.47 363.68 1347 364.448 1348.07 364.96C1349.18 365.472 1350.89 365.984 1353.19 366.496C1355.84 367.179 1357.99 367.861 1359.66 368.544C1361.32 369.184 1362.77 370.251 1364.01 371.744C1365.29 373.195 1365.95 375.157 1365.99 377.632C1365.99 379.723 1365.39 381.6 1364.2 383.264C1363.05 384.885 1361.36 386.165 1359.14 387.104C1356.97 388.043 1354.43 388.512 1351.53 388.512ZM1392.59 378.72V388H1387.02C1383.05 388 1379.96 387.04 1377.74 385.12C1375.52 383.157 1374.41 379.979 1374.41 375.584V361.376H1370.06V352.288H1374.41V343.584H1385.36V352.288H1392.53V361.376H1385.36V375.712C1385.36 376.779 1385.61 377.547 1386.13 378.016C1386.64 378.485 1387.49 378.72 1388.69 378.72H1392.59Z" fill="white"/>
<rect x="83" y="725" width="792" height="56" rx="28" fill="#060F1D"/>
<rect x="83" y="805" width="650" height="56" rx="28" fill="#060F1D"/>
<rect x="83" y="885" width="745" height="56" rx="28" fill="#060F1D"/>
<line x1="1105" y1="411.5" x2="1401" y2="411.5" stroke="white" stroke-width="5"/>
<rect x="1024" width="456" height="233" rx="30" fill="#0B2443"/>
<rect y="691" width="965" height="276" rx="30" fill="#0B2443"/>
<rect x="1024" y="291" width="456" height="676" rx="30" fill="#0B2443"/>
<rect width="965" height="635" rx="30" fill="#0B2443"/>
<path d="M1183.97 131.48C1182.07 131.48 1180.33 131.133 1178.73 130.44C1177.15 129.72 1175.86 128.707 1174.85 127.4L1178.45 123.08C1179.97 125.133 1181.7 126.16 1183.65 126.16C1186.29 126.16 1187.61 124.613 1187.61 121.52V108.2H1177.77V103H1194.05V121.16C1194.05 124.6 1193.19 127.187 1191.49 128.92C1189.78 130.627 1187.27 131.48 1183.97 131.48ZM1221.69 109.48V131H1215.77V128.44C1214.94 129.373 1213.96 130.093 1212.81 130.6C1211.66 131.08 1210.42 131.32 1209.09 131.32C1206.26 131.32 1204.02 130.507 1202.37 128.88C1200.72 127.253 1199.89 124.84 1199.89 121.64V109.48H1206.13V120.72C1206.13 124.187 1207.58 125.92 1210.49 125.92C1211.98 125.92 1213.18 125.44 1214.09 124.48C1215 123.493 1215.45 122.04 1215.45 120.12V109.48H1221.69ZM1240.55 109.16C1243.22 109.16 1245.36 109.96 1246.99 111.56C1248.64 113.16 1249.47 115.533 1249.47 118.68V131H1243.23V119.64C1243.23 117.933 1242.86 116.667 1242.11 115.84C1241.36 114.987 1240.28 114.56 1238.87 114.56C1237.3 114.56 1236.04 115.053 1235.11 116.04C1234.18 117 1233.71 118.44 1233.71 120.36V131H1227.47V109.48H1233.43V112C1234.26 111.093 1235.28 110.4 1236.51 109.92C1237.74 109.413 1239.08 109.16 1240.55 109.16ZM1276.44 120.32C1276.44 120.4 1276.4 120.96 1276.32 122H1260.04C1260.33 123.333 1261.03 124.387 1262.12 125.16C1263.21 125.933 1264.57 126.32 1266.2 126.32C1267.32 126.32 1268.31 126.16 1269.16 125.84C1270.04 125.493 1270.85 124.96 1271.6 124.24L1274.92 127.84C1272.89 130.16 1269.93 131.32 1266.04 131.32C1263.61 131.32 1261.47 130.853 1259.6 129.92C1257.73 128.96 1256.29 127.64 1255.28 125.96C1254.27 124.28 1253.76 122.373 1253.76 120.24C1253.76 118.133 1254.25 116.24 1255.24 114.56C1256.25 112.853 1257.63 111.533 1259.36 110.6C1261.12 109.64 1263.08 109.16 1265.24 109.16C1267.35 109.16 1269.25 109.613 1270.96 110.52C1272.67 111.427 1274 112.733 1274.96 114.44C1275.95 116.12 1276.44 118.08 1276.44 120.32ZM1265.28 113.88C1263.87 113.88 1262.68 114.28 1261.72 115.08C1260.76 115.88 1260.17 116.973 1259.96 118.36H1270.56C1270.35 117 1269.76 115.92 1268.8 115.12C1267.84 114.293 1266.67 113.88 1265.28 113.88ZM1301.4 103V131H1294.92V108.2H1289.32V103H1301.4ZM1328.19 103V107.2L1317.79 131H1310.75L1320.79 108.28H1311.51V112.84H1305.75V103H1328.19Z" fill="white"/>
<path d="M1171.16 334.2V341.6H1184.12V346.8H1171.16V357H1164.68V329H1185.84V334.2H1171.16ZM1199.48 357.32C1197.22 357.32 1195.18 356.853 1193.36 355.92C1191.58 354.96 1190.18 353.64 1189.16 351.96C1188.15 350.28 1187.64 348.373 1187.64 346.24C1187.64 344.107 1188.15 342.2 1189.16 340.52C1190.18 338.84 1191.58 337.533 1193.36 336.6C1195.18 335.64 1197.22 335.16 1199.48 335.16C1201.75 335.16 1203.78 335.64 1205.56 336.6C1207.35 337.533 1208.75 338.84 1209.76 340.52C1210.78 342.2 1211.28 344.107 1211.28 346.24C1211.28 348.373 1210.78 350.28 1209.76 351.96C1208.75 353.64 1207.35 354.96 1205.56 355.92C1203.78 356.853 1201.75 357.32 1199.48 357.32ZM1199.48 352.2C1201.08 352.2 1202.39 351.667 1203.4 350.6C1204.44 349.507 1204.96 348.053 1204.96 346.24C1204.96 344.427 1204.44 342.987 1203.4 341.92C1202.39 340.827 1201.08 340.28 1199.48 340.28C1197.88 340.28 1196.56 340.827 1195.52 341.92C1194.48 342.987 1193.96 344.427 1193.96 346.24C1193.96 348.053 1194.48 349.507 1195.52 350.6C1196.56 351.667 1197.88 352.2 1199.48 352.2ZM1221.41 338.32C1222.16 337.28 1223.16 336.493 1224.41 335.96C1225.69 335.427 1227.16 335.16 1228.81 335.16V340.92C1228.12 340.867 1227.65 340.84 1227.41 340.84C1225.63 340.84 1224.23 341.347 1223.21 342.36C1222.2 343.347 1221.69 344.84 1221.69 346.84V357H1215.45V335.48H1221.41V338.32ZM1253.41 346.32C1253.41 346.4 1253.37 346.96 1253.29 348H1237.01C1237.3 349.333 1238 350.387 1239.09 351.16C1240.18 351.933 1241.54 352.32 1243.17 352.32C1244.29 352.32 1245.28 352.16 1246.13 351.84C1247.01 351.493 1247.82 350.96 1248.57 350.24L1251.89 353.84C1249.86 356.16 1246.9 357.32 1243.01 357.32C1240.58 357.32 1238.44 356.853 1236.57 355.92C1234.7 354.96 1233.26 353.64 1232.25 351.96C1231.24 350.28 1230.73 348.373 1230.73 346.24C1230.73 344.133 1231.22 342.24 1232.21 340.56C1233.22 338.853 1234.6 337.533 1236.33 336.6C1238.09 335.64 1240.05 335.16 1242.21 335.16C1244.32 335.16 1246.22 335.613 1247.93 336.52C1249.64 337.427 1250.97 338.733 1251.93 340.44C1252.92 342.12 1253.41 344.08 1253.41 346.32ZM1242.25 339.88C1240.84 339.88 1239.65 340.28 1238.69 341.08C1237.73 341.88 1237.14 342.973 1236.93 344.36H1247.53C1247.32 343 1246.73 341.92 1245.77 341.12C1244.81 340.293 1243.64 339.88 1242.25 339.88ZM1267.96 357.32C1265.67 357.32 1263.6 356.853 1261.76 355.92C1259.95 354.96 1258.52 353.64 1257.48 351.96C1256.47 350.28 1255.96 348.373 1255.96 346.24C1255.96 344.107 1256.47 342.2 1257.48 340.52C1258.52 338.84 1259.95 337.533 1261.76 336.6C1263.6 335.64 1265.67 335.16 1267.96 335.16C1270.23 335.16 1272.2 335.64 1273.88 336.6C1275.59 337.533 1276.83 338.88 1277.6 340.64L1272.76 343.24C1271.64 341.267 1270.03 340.28 1267.92 340.28C1266.3 340.28 1264.95 340.813 1263.88 341.88C1262.82 342.947 1262.28 344.4 1262.28 346.24C1262.28 348.08 1262.82 349.533 1263.88 350.6C1264.95 351.667 1266.3 352.2 1267.92 352.2C1270.06 352.2 1271.67 351.213 1272.76 349.24L1277.6 351.88C1276.83 353.587 1275.59 354.92 1273.88 355.88C1272.2 356.84 1270.23 357.32 1267.96 357.32ZM1289.88 335.16C1293.21 335.16 1295.77 335.96 1297.56 337.56C1299.34 339.133 1300.24 341.52 1300.24 344.72V357H1294.4V354.32C1293.22 356.32 1291.04 357.32 1287.84 357.32C1286.18 357.32 1284.74 357.04 1283.52 356.48C1282.32 355.92 1281.4 355.147 1280.76 354.16C1280.12 353.173 1279.8 352.053 1279.8 350.8C1279.8 348.8 1280.54 347.227 1282.04 346.08C1283.56 344.933 1285.89 344.36 1289.04 344.36H1294C1294 343 1293.58 341.96 1292.76 341.24C1291.93 340.493 1290.69 340.12 1289.04 340.12C1287.89 340.12 1286.76 340.307 1285.64 340.68C1284.54 341.027 1283.61 341.507 1282.84 342.12L1280.6 337.76C1281.77 336.933 1283.17 336.293 1284.8 335.84C1286.45 335.387 1288.14 335.16 1289.88 335.16ZM1289.4 353.12C1290.46 353.12 1291.41 352.88 1292.24 352.4C1293.06 351.893 1293.65 351.16 1294 350.2V348H1289.72C1287.16 348 1285.88 348.84 1285.88 350.52C1285.88 351.32 1286.18 351.96 1286.8 352.44C1287.44 352.893 1288.3 353.12 1289.4 353.12ZM1313.12 357.32C1311.34 357.32 1309.59 357.107 1307.88 356.68C1306.18 356.227 1304.82 355.667 1303.8 355L1305.88 350.52C1306.84 351.133 1308 351.64 1309.36 352.04C1310.72 352.413 1312.06 352.6 1313.36 352.6C1316 352.6 1317.32 351.947 1317.32 350.64C1317.32 350.027 1316.96 349.587 1316.24 349.32C1315.52 349.053 1314.42 348.827 1312.92 348.64C1311.16 348.373 1309.71 348.067 1308.56 347.72C1307.42 347.373 1306.42 346.76 1305.56 345.88C1304.74 345 1304.32 343.747 1304.32 342.12C1304.32 340.76 1304.71 339.56 1305.48 338.52C1306.28 337.453 1307.43 336.627 1308.92 336.04C1310.44 335.453 1312.23 335.16 1314.28 335.16C1315.8 335.16 1317.31 335.333 1318.8 335.68C1320.32 336 1321.58 336.453 1322.56 337.04L1320.48 341.48C1318.59 340.413 1316.52 339.88 1314.28 339.88C1312.95 339.88 1311.95 340.067 1311.28 340.44C1310.62 340.813 1310.28 341.293 1310.28 341.88C1310.28 342.547 1310.64 343.013 1311.36 343.28C1312.08 343.547 1313.23 343.8 1314.8 344.04C1316.56 344.333 1318 344.653 1319.12 345C1320.24 345.32 1321.22 345.92 1322.04 346.8C1322.87 347.68 1323.28 348.907 1323.28 350.48C1323.28 351.813 1322.88 353 1322.08 354.04C1321.28 355.08 1320.11 355.893 1318.56 356.48C1317.04 357.04 1315.23 357.32 1313.12 357.32ZM1341.01 355.96C1340.4 356.413 1339.64 356.76 1338.73 357C1337.85 357.213 1336.92 357.32 1335.93 357.32C1333.37 357.32 1331.39 356.667 1329.97 355.36C1328.59 354.053 1327.89 352.133 1327.89 349.6V340.76H1324.57V335.96H1327.89V330.72H1334.13V335.96H1339.49V340.76H1334.13V349.52C1334.13 350.427 1334.36 351.133 1334.81 351.64C1335.29 352.12 1335.96 352.36 1336.81 352.36C1337.8 352.36 1338.64 352.093 1339.33 351.56L1341.01 355.96Z" fill="white"/>
<rect x="83" y="725" width="792" height="56" rx="28" fill="#060F1D"/>
<rect x="83" y="805" width="650" height="56" rx="28" fill="#060F1D"/>
<rect x="83" y="885" width="745" height="56" rx="28" fill="#060F1D"/>
<path d="M79.6404 303.859C79.6404 303.859 220.634 329.969 279.817 314.303C340.74 298.637 420.811 79.3135 481.734 94.9794C542.657 112.386 622.728 514.48 683.651 537.108C742.834 559.737 885.568 387.411 885.568 387.411" stroke="#060F1D" stroke-width="9"/>
<path d="M72.7104 304.014C72.7104 305.861 73.4441 307.632 74.7499 308.938C76.0556 310.244 77.8265 310.977 79.6731 310.977C81.5197 310.977 83.2906 310.244 84.5963 308.938C85.9021 307.632 86.6358 305.861 86.6358 304.014C86.6358 302.168 85.9021 300.397 84.5963 299.091C83.2906 297.785 81.5197 297.052 79.6731 297.052C77.8265 297.052 76.0556 297.785 74.7499 299.091C73.4441 300.397 72.7104 302.168 72.7104 304.014Z" fill="#FE7210"/>
<path d="M274.193 314.652C274.193 316.498 274.926 318.269 276.232 319.575C277.538 320.881 279.309 321.615 281.155 321.615C283.002 321.615 284.773 320.881 286.079 319.575C287.384 318.269 288.118 316.498 288.118 314.652C288.118 312.805 287.384 311.034 286.079 309.729C284.773 308.423 283.002 307.689 281.155 307.689C279.309 307.689 277.538 308.423 276.232 309.729C274.926 311.034 274.193 312.805 274.193 314.652Z" fill="#FE7210"/>
<path d="M475.674 96.5855C475.674 98.4321 476.408 100.203 477.714 101.509C479.019 102.815 480.79 103.548 482.637 103.548C484.484 103.548 486.254 102.815 487.56 101.509C488.866 100.203 489.6 98.4321 489.6 96.5855C489.6 94.7388 488.866 92.9679 487.56 91.6621C486.254 90.3564 484.484 89.6228 482.637 89.6228C480.79 89.6228 479.019 90.3564 477.714 91.6621C476.408 92.9679 475.674 94.7388 475.674 96.5855Z" fill="#FE7210"/>
<path d="M677.156 538.037C677.156 539.884 677.89 541.655 679.196 542.961C680.501 544.266 682.272 545 684.119 545C685.966 545 687.736 544.266 689.042 542.961C690.348 541.655 691.082 539.884 691.082 538.037C691.082 536.191 690.348 534.42 689.042 533.114C687.736 531.808 685.966 531.075 684.119 531.075C682.272 531.075 680.501 531.808 679.196 533.114C677.89 534.42 677.156 536.191 677.156 538.037Z" fill="#FE7210"/>
<path d="M878.638 389.114C878.638 390.96 879.372 392.731 880.678 394.037C881.983 395.343 883.754 396.076 885.601 396.076C887.447 396.076 889.218 395.343 890.524 394.037C891.83 392.731 892.563 390.96 892.563 389.114C892.563 387.267 891.83 385.496 890.524 384.19C889.218 382.885 887.447 382.151 885.601 382.151C883.754 382.151 881.983 382.885 880.678 384.19C879.372 385.496 878.638 387.267 878.638 389.114Z" fill="#FE7210"/>
</svg>
