<svg width="229" height="61" viewBox="0 0 229 61" fill="none" xmlns="http://www.w3.org/2000/svg">
<path d="M164.487 18.2074C171.505 12.9385 176.718 13.0402 181.769 18.6702C184.591 15.3949 188.151 13.92 192.52 14.5252C196.838 15.1254 199.701 17.592 199.92 21.8997C200.246 28.2367 200.22 34.5991 200.154 40.9514C200.123 43.5553 198.374 45.076 196.177 44.9743C194 44.8726 192.54 43.2756 192.485 40.6106C192.373 35.4434 192.449 30.2711 192.327 25.1038C192.251 21.8438 191.05 20.3536 188.701 20.1706C186.214 19.9773 183.549 21.7523 183.162 24.4376C182.694 27.6875 182.715 31.0085 182.598 34.3042C182.521 36.4199 182.659 38.5458 182.542 40.6564C182.384 43.4333 180.802 45.0404 178.519 44.959C176.306 44.8827 174.938 43.3672 174.872 40.5903C174.75 35.423 174.842 30.2507 174.679 25.0835C174.572 21.6709 173.474 20.3587 171.088 20.1604C168.113 19.9163 165.809 21.2996 165.443 24.402C164.914 28.9233 165.001 33.5158 164.797 38.0728C164.736 39.4205 164.731 40.7886 164.461 42.1008C164.065 44.0232 162.641 44.9946 160.759 44.9183C158.75 44.8319 157.387 43.6469 157.209 41.5973C157.026 39.4917 157.092 37.3658 157.087 35.2501C157.072 29.9964 157.087 24.7377 157.077 19.484C157.072 16.1985 157.936 14.6727 160.032 14.3422C162.051 14.0319 163.322 15.0949 164.487 18.2074Z" fill="#FE7210"/>
<path d="M67.7843 19.0007C70.6121 16.0204 73.6788 14.2709 77.3407 14.8608C79.4564 15.2016 81.6738 16.1984 83.3572 17.5207C84.8118 18.665 85.417 18.8939 86.8156 17.5411C91.1081 13.4012 98.6758 13.7877 101.615 18.2734C102.455 19.5551 103.04 21.2385 103.08 22.7541C103.253 28.6791 103.218 34.6143 103.146 40.5393C103.116 43.0416 101.788 44.4554 99.7998 44.486C97.6434 44.5216 96.316 43.1128 96.2601 40.4478C96.1736 36.2113 96.2194 31.9747 96.1939 27.7382C96.1889 26.7211 96.1838 25.6988 96.0617 24.6969C95.6803 21.4826 94.536 20.0942 92.1659 19.8653C89.7552 19.6314 87.0241 21.3148 86.3325 23.8577C85.8086 25.7903 85.6713 27.8552 85.595 29.8743C85.4628 33.4293 85.6001 36.9945 85.4526 40.5444C85.3407 43.2145 83.9675 44.5826 81.801 44.4605C79.2326 44.3181 78.6477 42.5076 78.6121 40.3918C78.5257 35.1381 78.6274 29.8794 78.4036 24.6358C78.2307 20.557 75.4538 18.6905 71.7971 20.2874C70.4493 20.8774 68.9795 22.4845 68.6693 23.873C67.9725 26.9753 67.8911 30.2252 67.708 33.4242C67.5656 35.957 67.7386 38.5101 67.6012 41.0479C67.4944 43.0212 66.5637 44.4707 64.3158 44.4707C62.1339 44.4707 60.9032 43.1077 60.8676 41.1547C60.7302 33.3632 60.6794 25.5615 60.9032 17.775C60.9337 16.7375 62.5917 15.166 63.7258 14.9219C64.6108 14.7337 65.9077 16.1577 66.9147 16.9969C67.2961 17.3224 67.3724 18.0141 67.7843 19.0007Z" fill="#FE7210"/>
<path d="M129.176 40.163C129.176 44.1605 129.227 47.5222 129.15 50.8789C129.125 52.0385 129.125 53.4727 128.484 54.2762C127.752 55.1866 126.262 56.0716 125.199 55.9698C124.176 55.8681 123.144 54.5967 122.386 53.6303C121.989 53.1268 122.112 52.1605 122.112 51.4078C122.096 40.4783 122.076 29.5488 122.112 18.6142C122.122 15.166 124.532 13.2232 127.07 14.754C128.265 15.4762 128.886 17.1495 129.847 18.5074C129.923 18.4464 130.386 18.126 130.788 17.7445C136.423 12.3535 145.451 13.5538 149.245 20.3739C152.581 26.3651 152.5 32.6308 149.356 38.6271C145.639 45.7218 136.703 47.0391 130.829 41.6226C130.457 41.287 130.076 40.9666 129.176 40.163ZM143.086 34.2787C144.113 31.5069 144.179 28.4604 143.406 25.6073C143.274 25.1241 143.126 24.6562 142.943 24.1985C141.941 21.6708 140.034 20.0738 137.161 19.967C134.216 19.8552 132.014 21.2538 130.798 23.7865C128.896 27.7433 128.84 31.8578 131.088 35.7078C133.784 40.3207 139.861 40.3207 142.455 35.6722C142.704 35.2297 142.908 34.7618 143.086 34.2787Z" fill="#FE7210"/>
<path d="M35.1738 52.0334C31.5984 54.9425 28.2825 57.6431 24.8139 60.4709C23.573 57.9737 24.1985 54.1593 20.791 53.6406C18.1769 53.2439 15.3847 54.0373 12.5824 54.3119C13.1825 51.4842 14.8202 48.2445 12.7248 45.1879C10.5074 41.9482 6.92185 42.767 3.15832 42.8433C5.1418 39.5324 8.25944 36.4402 6.63196 33.0174C5.22826 30.0574 2.1208 27.9061 0 25.6429C1.72919 25.2004 4.27721 24.7427 6.6879 23.8883C10.604 22.5049 11.6008 20.0027 9.68348 16.3053C8.61545 14.2404 7.11003 12.4044 5.91485 10.6396C8.71716 10.8227 11.6161 11.1736 14.5201 11.1685C18.2074 11.1584 20.2875 9.19523 20.7045 5.4673C20.8978 3.72285 20.7401 1.93771 20.7401 0C22.8965 1.50541 24.8393 3.10237 27.0008 4.29247C29.1877 5.49273 31.5984 6.29121 34.0397 7.31855C19.7331 13.1164 14.7541 19.6772 15.7 32.1121C16.29 39.868 21.1368 49.0023 35.1738 52.0334Z" fill="#FE7210"/>
<path d="M228.553 29.1216C229.123 41.882 216.831 53.2591 204.009 51.7689C203.307 51.6875 202.677 50.9959 202.015 50.589C202.565 49.9227 202.992 49.0683 203.684 48.6258C210.672 44.1401 214.71 37.8998 214.664 29.4928C214.618 21.4165 210.804 15.3135 204.111 10.8888C203.287 10.3446 202.738 9.38336 202.061 8.6154C203.063 8.21361 204.055 7.48634 205.067 7.46599C217.883 7.16593 227.994 16.5341 228.553 29.1216Z" fill="#FE7210"/>
<path d="M55.0849 41.1345C55.1816 41.9584 54.6781 43.2299 54.0271 43.6774C53.254 44.2063 52.008 44.2318 50.9959 44.1402C50.4365 44.0894 49.7397 43.474 49.4447 42.9247C47.9342 40.1733 46.3118 40.9311 44.2215 42.3347C41.0022 44.5013 37.3149 45.0455 33.5158 44.2267C29.7675 43.4231 27.306 40.5547 27.1229 37.0099C26.9194 33.0531 28.5571 30.3321 32.4935 29.1268C36.2825 27.9723 40.2444 27.3976 44.069 26.3499C45.1675 26.0498 46.795 25.1089 46.912 24.285C47.1815 22.327 46.3881 20.3994 44.2317 19.6111C41.4192 18.5787 36.313 18.8228 34.2431 22.388C33.9888 22.8254 33.6379 23.2017 33.3581 23.6239C32.463 24.9513 31.2831 25.3683 29.8642 24.5698C28.4249 23.7612 27.6264 22.2914 28.5774 20.9589C29.8998 19.1025 31.456 16.9817 33.4141 16.0968C38.2609 13.915 43.4739 14.0777 48.5242 15.6442C51.8859 16.6868 53.4575 19.3721 53.6965 22.7593C53.727 23.2119 53.7473 23.7612 53.7626 24.3461C53.8542 28.6741 54.1288 33.0022 54.6374 37.3048C54.8001 38.7187 54.9629 40.0766 55.0849 41.1345ZM47.1256 32.1478C47.1256 32.1478 46.7543 29.7422 45.4777 29.8846C42.5025 30.383 39.5629 31.2069 36.6843 32.1173C34.7161 32.7377 33.704 34.3347 33.943 36.4402C34.1719 38.4136 35.4586 39.685 37.3353 40.0665C41.5769 40.9311 47.1256 39.568 47.1256 32.1478Z" fill="#FE7210"/>
<path d="M112.911 20.3943C114.808 20.6384 115.912 21.6708 115.871 23.5729C115.825 25.5005 114.534 26.6041 112.748 26.5329C110.999 26.4668 109.763 25.3988 109.834 23.3899C109.9 21.3962 111.121 20.5977 112.911 20.3943Z" fill="#FE7210"/>
<path d="M112.809 43.067C111.04 42.8331 109.824 41.9583 109.839 40.0053C109.855 38.1032 110.907 36.9843 112.815 36.9589C114.742 36.9335 115.825 38.1032 115.881 39.9443C115.932 41.8718 114.656 42.7771 112.809 43.067Z" fill="#FE7210"/>
</svg>
